<svg xmlns="http://www.w3.org/2000/svg" width="64" height="64" viewBox="0 0 64 64">
  <circle cx="32" cy="32" r="32" fill="#012169"/>
  <polygon points="4.97,14.87 49.13,59.03 59.03,49.13 14.87,4.97" fill="#ffffff"/>
  <polygon points="49.13,4.97 4.97,49.13 14.87,59.03 59.03,14.87" fill="#ffffff"/>
  <polygon points="7.03,11.98 52.02,56.97 56.97,52.02 11.98,7.03" fill="#c8102e"/>
  <polygon points="52.02,7.03 7.03,52.02 11.98,56.97 56.97,11.98" fill="#c8102e"/>
  <polygon points="1.60,22 62.40,22 62.40,42 1.60,42" fill="#ffffff"/>
  <polygon points="22,1.60 42,1.60 42,62.40 22,62.40" fill="#ffffff"/>
  <polygon points="0.57,26 63.43,26 63.43,38 0.57,38" fill="#c8102e"/>
  <polygon points="26,0.57 38,0.57 38,63.43 26,63.43" fill="#c8102e"/>
</svg>
